<svg id="Holcim_2021_sRGB_Digital_Hub_GDH" xmlns="http://www.w3.org/2000/svg" xmlns:xlink="http://www.w3.org/1999/xlink" width="177.764" height="34.565" viewBox="0 0 177.764 34.565">
  <defs>
    <linearGradient id="linear-gradient" x1="-0.029" y1="0.713" x2="1.026" y2="0.287" gradientUnits="objectBoundingBox">
      <stop offset="0.15" stop-color="#94c12e"/>
      <stop offset="0.186" stop-color="#8dc137"/>
      <stop offset="0.245" stop-color="#7bc04f"/>
      <stop offset="0.32" stop-color="#5ebf77"/>
      <stop offset="0.407" stop-color="#35bdae"/>
      <stop offset="0.5" stop-color="#04bbf1"/>
      <stop offset="0.586" stop-color="#05b7ed"/>
      <stop offset="0.674" stop-color="#07ace0"/>
      <stop offset="0.764" stop-color="#0b98cc"/>
      <stop offset="0.855" stop-color="#117daf"/>
      <stop offset="0.946" stop-color="#185b8a"/>
      <stop offset="1" stop-color="#1d4370"/>
    </linearGradient>
  </defs>
  <path id="Path_89" data-name="Path 89" d="M78.387,35.546H81.57v4.269h4.2V35.546h3.182V46.953H85.775V42.619h-4.2v4.335H78.387Zm13.326,5.736V41.25a6.129,6.129,0,0,1,12.25-.033v.033a6.129,6.129,0,0,1-12.25.032Zm9,0V41.25a2.925,2.925,0,0,0-2.893-3.08,2.867,2.867,0,0,0-2.844,3.047v.033a2.922,2.922,0,0,0,2.877,3.08A2.871,2.871,0,0,0,100.715,41.282Zm6.151-5.736h3.183v8.637h5.262v2.77h-8.445Zm10.044,5.736V41.25a5.88,5.88,0,0,1,6.053-5.932,5.635,5.635,0,0,1,4.872,2.379l-2.4,1.841a3.079,3.079,0,0,0-2.51-1.336,2.829,2.829,0,0,0-2.74,3.015v.033a2.829,2.829,0,0,0,2.74,3.047,3.143,3.143,0,0,0,2.592-1.385l2.4,1.695a6,6,0,0,1-11.008-3.324Zm13.871-5.736h3.2V46.953h-3.2Zm6.49,0h3.363l2.92,4.416,2.919-4.416h3.363V46.953h-3.166v-6.67l-3.116,4.465h-.066l-3.1-4.432v6.637h-3.117Z" transform="translate(-51.078 -23.014)" fill="#1d4370"/>
  <path id="Path_90" data-name="Path 90" d="M15.107,16.864A6.41,6.41,0,0,0,8.736,21.82a11.785,11.785,0,0,0-.249,2.613v2.219h4.752V21.613h3.735V29.8a6.626,6.626,0,0,0,4.752-6.346,6.527,6.527,0,0,0-6.62-6.6ZM6.561,39.677A6.476,6.476,0,0,0,12.99,34.72a11.785,11.785,0,0,0,.249-2.613V29.888H8.487v5.04H4.752V26.736A6.626,6.626,0,0,0,0,33.082a6.3,6.3,0,0,0,6.561,6.6Z" transform="translate(0 -10.988)" fill="url(#linear-gradient)"/>
  <rect id="Rectangle_3" data-name="Rectangle 3" width="7.901" height="7.901" transform="translate(169.863 26.665)" fill="none"/>
  <rect id="Rectangle_4" data-name="Rectangle 4" width="7.901" height="7.901" fill="none"/>
  <rect id="Rectangle_5" data-name="Rectangle 5" width="1.185" height="34.565" transform="translate(110.608)" fill="#94c12e"/>
  <path id="Path_91" data-name="Path 91" d="M353.336,37.592h1.07V35.023h2.91v2.569h1.07V31.5h-1.07v2.535h-2.91V31.5h-1.07v6.1Zm9.119.1a2.433,2.433,0,0,0,2.621-2.734V31.5h-1.07v3.51c0,1.124-.584,1.69-1.533,1.69s-1.542-.6-1.542-1.733V31.5h-1.07v3.51a2.4,2.4,0,0,0,2.595,2.681Zm4.094-.1h2.822c1.359,0,2.255-.583,2.255-1.672V35.9a1.494,1.494,0,0,0-1.21-1.481,1.452,1.452,0,0,0,.87-1.359v-.017a1.378,1.378,0,0,0-.409-1.01,2.2,2.2,0,0,0-1.593-.539h-2.735v6.1Zm3.667-4.354c0,.557-.462.828-1.15.828H367.6V32.445h1.542c.688,0,1.071.3,1.071.776Zm.34,2.552v.017c0,.549-.453.837-1.176.837H367.6V34.971h1.7c.845,0,1.254.3,1.254.819Zm-17.219-8.649h2.273a3.051,3.051,0,0,0,3.24-3.048v-.017a3.037,3.037,0,0,0-3.24-3.03h-2.273Zm2.273-5.121a2,2,0,0,1,2.117,2.074v.017a1.988,1.988,0,0,1-2.117,2.056h-1.2V22.019Zm4.6,5.121h1.07v-6.1h-1.07v6.1Zm5.591.1a3.887,3.887,0,0,0,2.543-.948V23.736h-2.595v.94h1.559v1.133a2.489,2.489,0,0,1-1.472.462,2.037,2.037,0,0,1-2.074-2.178v-.017a2.055,2.055,0,0,1,1.978-2.143,2.419,2.419,0,0,1,1.707.645l.679-.811a3.292,3.292,0,0,0-2.342-.826,3.105,3.105,0,0,0-3.144,3.152v.017a3.025,3.025,0,0,0,3.162,3.135Zm4-.1h1.071v-6.1H369.8Zm4.189,0h1.07v-5.1H377v-.992h-4.955v.992h1.942v5.1Zm2.831,0h1.1l.627-1.472h2.882l.618,1.472h1.132L380.492,21H379.5l-2.682,6.139Zm2.117-2.42,1.045-2.439,1.054,2.439Zm5.287,2.42H388.5v-.974h-3.205V21.045h-1.07ZM356.227,16.793a3.887,3.887,0,0,0,2.543-.948V13.284h-2.595v.94h1.56v1.133a2.491,2.491,0,0,1-1.473.462,2.037,2.037,0,0,1-2.074-2.178v-.017a2.055,2.055,0,0,1,1.978-2.143,2.418,2.418,0,0,1,1.707.645l.679-.811a3.292,3.292,0,0,0-2.342-.826,3.1,3.1,0,0,0-3.144,3.152v.017a3.024,3.024,0,0,0,3.161,3.135Zm3.937-.1h4.275v-.974h-3.205V10.593h-1.07Zm7.917.1a3.122,3.122,0,0,0,3.2-3.152v-.017a3.187,3.187,0,1,0-6.375.017v.017a3.093,3.093,0,0,0,3.179,3.135Zm.017-.992a2.082,2.082,0,0,1-2.074-2.161v-.017a2.053,2.053,0,0,1,2.056-2.143,2.082,2.082,0,0,1,2.074,2.161v.017A2.054,2.054,0,0,1,368.1,15.8Zm4.477.887H375.4c1.359,0,2.255-.583,2.255-1.672V15a1.494,1.494,0,0,0-1.21-1.481,1.452,1.452,0,0,0,.87-1.359v-.017a1.377,1.377,0,0,0-.409-1.01,2.2,2.2,0,0,0-1.593-.539h-2.735v6.1Zm3.667-4.354c0,.557-.462.828-1.15.828h-1.464V11.541h1.542c.688,0,1.071.3,1.071.776v.017Zm.34,2.552V14.9c0,.549-.453.837-1.176.837h-1.777V14.067h1.7c.845,0,1.254.3,1.254.819Zm1.725,1.8h1.1l.627-1.472h2.882l.618,1.472h1.132l-2.682-6.139h-.992Zm2.117-2.42,1.045-2.439,1.054,2.439Zm5.287,2.42h4.276v-.974H386.78V10.593h-1.07v6.1Z" transform="translate(-230.058 -6.806)" fill="#1d4370"/>
</svg>
