<svg xmlns="http://www.w3.org/2000/svg" width="71.04" height="27.624" viewBox="0 0 71.04 27.624">
  <g id="Group_16" data-name="Group 16" transform="translate(-164.48 -29.5)">
    <path id="Path_92" data-name="Path 92" d="M-28.728.12h3.264l6.792-16.92h-3.984L-27.048-4.968-31.44-16.8h-4.08ZM-1.68,0H1.944V-10.9l4.68,7.1h.1l4.728-7.176V0H15.12V-16.8H11.136L6.72-9.7,2.3-16.8H-1.68ZM17.712,0H21.48l1.536-3.768h7.1L31.656,0H35.52l-7.2-16.92H24.912Zm6.624-7.032,2.232-5.448L28.8-7.032Z" transform="translate(200 56.003)" fill="#fff"/>
    <g id="Group_13" data-name="Group 13" transform="translate(185.213 29.5)">
      <path id="Line_1" data-name="Line 1" d="M-1.964,13.82A3.036,3.036,0,0,1-5,10.785V-1.964A3.036,3.036,0,0,1-1.964-5,3.036,3.036,0,0,1,1.071-1.964V10.785A3.036,3.036,0,0,1-1.964,13.82Z" transform="translate(5.607 13.803)" fill="#04bbf1"/>
      <rect id="Rectangle_2" data-name="Rectangle 2" width="7.285" height="7.285" rx="3.643" transform="translate(0)" fill="#04bbf1"/>
    </g>
  </g>
</svg>
