<svg xmlns="http://www.w3.org/2000/svg" xmlns:xlink="http://www.w3.org/1999/xlink" width="261.395" height="250.965" viewBox="0 0 261.395 250.965">
  <defs>
    <radialGradient id="radial-gradient" cx="1.223" cy="0.264" r="1.623" gradientUnits="objectBoundingBox">
      <stop offset="0" stop-color="#8c4297"/>
      <stop offset="1" stop-color="#6f6eb2"/>
    </radialGradient>
    <linearGradient id="linear-gradient" y1="0.5" x2="1" y2="0.5" gradientUnits="objectBoundingBox">
      <stop offset="0" stop-color="#fff"/>
      <stop offset="1" stop-color="#ffffe7" stop-opacity="0"/>
    </linearGradient>
    <linearGradient id="linear-gradient-2" x1="8.649" y1="36.401" x2="8.649" y2="36.289" gradientUnits="objectBoundingBox">
      <stop offset="0" stop-color="#3e266f"/>
      <stop offset="0.39" stop-color="#203176"/>
      <stop offset="0.761" stop-color="#0a387b"/>
      <stop offset="1" stop-color="#023b7d"/>
    </linearGradient>
    <linearGradient id="linear-gradient-3" x1="-14.731" y1="18.648" x2="-16.551" y2="21.169" gradientUnits="objectBoundingBox">
      <stop offset="0" stop-color="#27aae1"/>
      <stop offset="1" stop-color="#fff"/>
    </linearGradient>
    <linearGradient id="linear-gradient-4" x1="11.515" y1="52.776" x2="11.515" y2="54.837" gradientUnits="objectBoundingBox">
      <stop offset="0" stop-color="#9ed8ff" stop-opacity="0"/>
      <stop offset="0.434" stop-color="#fff"/>
      <stop offset="0.987" stop-color="#fff" stop-opacity="0"/>
    </linearGradient>
    <linearGradient id="linear-gradient-5" x1="76.282" y1="49.945" x2="76.282" y2="52.038" xlink:href="#linear-gradient-4"/>
  </defs>
  <g id="scan-qr-code-for-online-payment" transform="translate(0)" style="mix-blend-mode: normal;isolation: isolate">
    <g id="Group_12" data-name="Group 12" transform="translate(0 0)">
      <path id="Path_1" data-name="Path 1" d="M206.634,242.388S48.213,250.175,42.6,240.6c-7.552-12.883,25.1-10.567,51.516-10.567S206.634,242.388,206.634,242.388ZM1.914,250.836c3.508-.233,14.01-1.431,14.01-1.431s-13.277-.55-14.254-.44S-1.666,251.073,1.914,250.836Zm46.307.11c3.242-.233,12.945-1.431,12.945-1.431s-12.267-.55-13.171-.44S44.913,251.183,48.221,250.946ZM3.076,129.668c8.661,33.8,39.226,59.917,89.948,65.981s89,43.13,132.209,17.068c48.664-29.362,36.953-137.064-16.7-183.745C118.451-48.865-12.547,45.671,3.076,129.668Z" transform="translate(0 0)" fill="#e5f1f7"/>
      <path id="Path_2" data-name="Path 2" d="M630.385,406.957c3.075,7.762,2.906,4.143,2.327,11.816s1.688,5.871-4.136,9.363,3.375,6.769,3.806,11.159a2.593,2.593,0,0,1,.018.387c.207,3.873-2.857,4.43-7.268,9.492l-.016.02c-.175.2-.359.413-.54.642a6.508,6.508,0,0,0-1.693,3.86c-.177,3.683,3.939,6.016,3.939,6.016l3.8,2.017s11.99-6.453,10.639-12.382.466-9.577,5.532-11.045c4.706-1.362-1.629-4.513-2.886-7.92a3.046,3.046,0,0,1-.191-.782c-.247-2.124,1.483-2.325,3.45-2.681a6.313,6.313,0,0,0,4.039-1.891c1.137-1.417.313-2.587-.382-4.206-.769-1.791-1.379-4.153,1.11-8.015,4.708-7.322,12.288-27.254-8.17-34.188C631.671,374.522,627.318,399.184,630.385,406.957Z" transform="translate(-430.516 -261.377)" fill="#94c12e"/>
      <g id="Group_1" data-name="Group 1" transform="translate(206.258 126.066)" opacity="0.1">
        <path id="Path_3" data-name="Path 3" d="M675.566,408.24c2.69,1.439,2.847,4.941,1.9,7.526-.74,2.026-2.088,3.757-2.953,5.724a12.791,12.791,0,0,0-.66,6.809,13.617,13.617,0,0,1-.353,5.75A41.569,41.569,0,0,1,670.574,440c-1.989,3.877-2.265,8.021-1.976,12.3.3,4.425,1.007,8.826.55,13.267-.037.367-.6.237-.559-.125.749-7.3-1.918-14.758,0-21.961,1.072-4.034,4.291-7.31,4.8-11.5a35.219,35.219,0,0,0-.295-5.862,10.546,10.546,0,0,1,.918-4.9c.986-2.2,2.615-4.156,3.185-6.527.518-2.153.243-4.8-1.9-5.948a.287.287,0,0,1,.269-.506Z" transform="translate(-667.88 -408.211)" fill="#fff"/>
      </g>
      <path id="Path_4" data-name="Path 4" d="M622.626,562.006l-.009.024a45.4,45.4,0,0,0-.773,5.009c.954,3.594,5.622,4.58,5.622,4.58l4.266.78s9.556-9.862,6.447-15.148-2.475-9.348,1.946-12.3c4.108-2.746-2.943-3.84-5.191-6.732a80.521,80.521,0,0,1-4.795,7.02,41.886,41.886,0,0,0-3.425,5.429A43.15,43.15,0,0,0,622.626,562.006Z" transform="translate(-429.803 -371.999)" fill="#231f20" opacity="0.1"/>
      <path id="Path_5" data-name="Path 5" d="M644.3,447.407a46.312,46.312,0,0,0-2.186,15.652,35.076,35.076,0,0,0,.7,6.39l1.37-1.413a8.222,8.222,0,0,0,2.206.288c13.2.023,27.748-29.948,37.133-41.2,6.559-7.846,3.009-11.82,1.5-14.65-.789-1.463-1.022-2.62.909-3.848,5.717-3.63-1.639-1.894,4.676-7.9,6.307-6.023,3.974-12.126-5.533-15.78s-13.208,2.178-12.448,13.849c.89,13.789-11.413,4.529-12.912,14.276s-1.674,12.092-9.109,22.072A42.5,42.5,0,0,0,644.3,447.407Z" transform="translate(-443.796 -265.315)" fill="#1d4370"/>
      <path id="Path_6" data-name="Path 6" d="M644.3,589.628a46.312,46.312,0,0,0-2.186,15.652,35.075,35.075,0,0,0,.7,6.39l1.37-1.413a8.224,8.224,0,0,0,2.206.288,7.9,7.9,0,0,0-2.049-4.612c-4.4-5.448,5.573-2.164,2.991-9.854C645.581,590.839,646.068,591.942,644.3,589.628Z" transform="translate(-443.796 -407.536)" fill="#231f20" opacity="0.1"/>
      <g id="Group_2" data-name="Group 2" transform="translate(203.766 126.305)" opacity="0.1">
        <path id="Path_7" data-name="Path 7" d="M697.876,409.2c1,4.1-1.374,7.833-4.119,10.676a63.661,63.661,0,0,0-5.388,5.632c-1.85,2.457-2.432,5.28-3.044,8.226a22.42,22.42,0,0,1-2.654,7.1c-1.325,2.225-2.94,4.258-4.346,6.43-3.151,4.868-5.006,10.321-7.453,15.538a29.151,29.151,0,0,1-4.412,7.072c-1.9,2.142-5.531,3.728-6.016,6.746a.321.321,0,0,1-.632-.105c.316-1.97,1.727-3.2,3.221-4.387a22.475,22.475,0,0,0,5.589-6.385c2.633-4.51,4.2-9.554,6.544-14.209a53.96,53.96,0,0,1,4-6.636,36.14,36.14,0,0,0,4.493-7.47c.992-2.573,1.189-5.353,2-7.977a15.09,15.09,0,0,1,3.278-5.629c3.553-3.993,9.854-8.175,8.34-14.4C697.178,409.021,697.779,408.8,697.876,409.2Z" transform="translate(-659.808 -408.986)" fill="#fff"/>
      </g>
      <path id="Path_8" data-name="Path 8" d="M652.448,636.145s3.189,4.413,9.122-.306,2.29,6.051,10.629,3.324,1.853-.341,14.061-7.926,17.211,1.372,20.5-8.477-4.037-12.819-14.935-11.348-9.66-.7-16.473,1.165,1.072,7.487-7.488,8.049-13.183,9.761-13.986,11.833Z" transform="translate(-450.955 -422.347)" fill="#1d4370"/>
      <g id="Group_3" data-name="Group 3" transform="translate(206.659 196.636)" opacity="0.1">
        <path id="Path_9" data-name="Path 9" d="M713.513,637.776a46.074,46.074,0,0,0-11.857.054,17.5,17.5,0,0,0-5.522,1.89c-1.982,1.108-3.565,2.749-5.41,4.048-2.926,2.061-6.4,2.646-9.794,3.522a21.01,21.01,0,0,0-11.118,6.817c-.285.339-.844-.071-.556-.413a20.925,20.925,0,0,1,9.66-6.546c4.288-1.369,8.637-1.756,12.3-4.618,3.2-2.495,5.994-4.57,10.07-5.339,4.047-.763,8.219-.448,12.293-.1a.347.347,0,0,1-.07.689Z" transform="translate(-669.176 -636.72)" fill="#fff"/>
      </g>
      <path id="Path_10" data-name="Path 10" d="M642.17,527.091a35.079,35.079,0,0,0,.7,6.39l1.371-1.413c13.753,3.727,29.426-29.024,39.339-40.916,6.559-7.846,3.009-11.82,1.5-14.65-15.057,1.163-15.507,13.39-18.882,22.3-3.556,9.393-7.718-.237-9.5,9.6-1.761,9.827-10.336.238-10.53,10.411A10.8,10.8,0,0,1,642.17,527.091Z" transform="translate(-443.851 -329.346)" fill="#231f20" opacity="0.1"/>
      <path id="Path_11" data-name="Path 11" d="M641.1,537.378s-.709-3.931,8.536-3.848,16.961,11.3,18.712-1.705,5.79-5.621,14.034-18.368-1.578-16.467,7.76-20.5,14.455-16.256-3.1-16.311-17.865,13.012-21.422,22.407-7.723-.238-9.49,9.591-10.343.235-10.535,10.416-12.551,11.606-12.909,15.132Z" transform="translate(-437.293 -329.445)" fill="#94c12e"/>
      <g id="Group_4" data-name="Group 4" transform="translate(199.75 154.101)" opacity="0.1">
        <path id="Path_12" data-name="Path 12" d="M700.365,499.636c-2.686.817-5.536,1.69-7.612,3.68-2.187,2.1-3.141,5.091-3.867,7.947-1.161,4.569-2.022,9.781-6.294,12.547a29.081,29.081,0,0,0-3.338,2.114,11.417,11.417,0,0,0-2.665,3.84c-1,2.067-1.825,4.283-3.481,5.935-3.683,3.673-9.1,3-13.68,4.505-5.447,1.789-8.98,6.24-12.048,10.837-.229.343-.746-.035-.517-.378,2.5-3.753,5.293-7.486,9.307-9.73a20.377,20.377,0,0,1,7.134-2.21c2.792-.411,5.725-.834,8.115-2.458,2.538-1.724,3.483-4.576,4.8-7.2a11.032,11.032,0,0,1,4.446-4.862,12.377,12.377,0,0,0,5.89-6.8c.958-2.583,1.383-5.314,2.162-7.95a14.223,14.223,0,0,1,4.012-6.978c2.131-1.831,4.892-2.669,7.53-3.471C700.653,498.885,700.754,499.518,700.365,499.636Z" transform="translate(-646.806 -498.99)" fill="#fff"/>
      </g>
      <path id="Path_13" data-name="Path 13" d="M31.727,199.3c7.421,8.378,5.555,3.894,8.33,13.83,2.758,9.93,4.81,6.629-.936,13.689s7.346,6.989,9.893,12.326a3.486,3.486,0,0,1,.2.479c2.031,4.787-1.577,6.888-4.824,15.283l-.011.032c-.129.334-.264.684-.388,1.055a8.726,8.726,0,0,0-.371,5.639c1.46,4.723,7.712,5.783,7.712,5.783l5.708.807s12.164-13.61,7.753-20.464-3.787-12.283,1.927-16.447c5.309-3.866-4.115-4.943-7.254-8.664a4.083,4.083,0,0,1-.6-.9c-1.282-2.563.807-3.608,3.123-4.955,1.7-1,3.522-2.165,4.227-4.228.786-2.3-.787-3.4-2.4-5.126-1.788-1.906-3.635-4.6-2.263-10.609,2.589-11.379,3.038-39.961-25.912-39.356C18.532,157.831,24.311,190.9,31.727,199.3Z" transform="translate(-16.916 -108.835)" fill="#00975f"/>
      <g id="Group_5" data-name="Group 5" transform="translate(23.226 59.473)" opacity="0.1">
        <path id="Path_14" data-name="Path 14" d="M75.634,192.58c4.048.585,5.845,4.927,5.835,8.616-.007,2.891-.916,5.689-1.107,8.563-.219,3.292.88,5.985,2.278,8.882a18.254,18.254,0,0,1,2.181,7.409c.1,2.978-.6,5.9-.972,8.838-.736,5.8.809,11.143,3.128,16.406,2.4,5.44,5.3,10.664,6.754,16.469.12.479-.643.571-.762.1-2.388-9.537-9.158-17.723-10.036-27.676-.492-5.574,2.069-11.173.8-16.685-.593-2.573-2.047-4.838-3.049-7.254a14.138,14.138,0,0,1-1.081-6.6c.238-3.22,1.4-6.432,1.033-9.681-.33-2.951-1.887-6.165-5.109-6.63a.384.384,0,0,1,.109-.76Z" transform="translate(-75.208 -192.578)" fill="#fff"/>
      </g>
      <path id="Path_15" data-name="Path 15" d="M83.615,404.954v.034a60.887,60.887,0,0,0,1.314,6.666c2.844,4.094,9.178,3.2,9.178,3.2l5.733-.966s7.538-16.794,1.206-22.037-7.389-10.651-3.168-16.4c3.923-5.337-5.464-3.5-9.617-6.114a107.931,107.931,0,0,1-2.836,11.038,56.129,56.129,0,0,0-1.837,8.408,57.844,57.844,0,0,0,.028,16.163Z" transform="translate(-57.391 -255.282)" fill="#231f20" opacity="0.1"/>
      <path id="Path_16" data-name="Path 16" d="M104.477,223.091a62.084,62.084,0,0,0,4.395,20.725,47.019,47.019,0,0,0,3.807,7.732l1.082-2.407a11.016,11.016,0,0,0,2.912-.645c16.643-6,21.293-50.418,27.979-68.89,4.683-12.884-1.607-16.271-4.795-19.151-1.662-1.484-2.485-2.835-.612-5.264,5.546-7.187-2.931-1.639,2.284-12.094,5.2-10.472-.53-17.1-14.181-17.36-13.634-.262-15.652,8.778-9.363,23.141,7.42,16.972-12.316,10.921-9.752,23.891s3.414,16-1.4,31.979A56.966,56.966,0,0,0,104.477,223.091Z" transform="translate(-72.187 -86.902)" fill="#39b3a9"/>
      <path id="Path_17" data-name="Path 17" d="M104.557,440.99a62.084,62.084,0,0,0,4.395,20.725,47.021,47.021,0,0,0,3.807,7.732l1.082-2.407a11.015,11.015,0,0,0,2.912-.645,10.588,10.588,0,0,0-4.688-4.876c-8.038-4.854,6.035-5.273-.732-13.785C106.725,441.931,107.842,443.1,104.557,440.99Z" transform="translate(-72.267 -304.801)" fill="#231f20" opacity="0.1"/>
      <g id="Group_6" data-name="Group 6" transform="translate(41.649 47.095)" opacity="0.1">
        <path id="Path_18" data-name="Path 18" d="M152.206,152.67c3.126,4.707,1.846,10.5-.315,15.337-1.42,3.177-3.193,6.217-4.219,9.559-1.21,3.942-.654,7.765-.08,11.758a30.051,30.051,0,0,1-.1,10.157c-.654,3.409-1.76,6.71-2.54,10.089-1.747,7.575-1.594,15.294-2.3,22.987a39.084,39.084,0,0,1-2.33,10.928c-1.419,3.568-5.268,7.224-4.5,11.25a.43.43,0,0,1-.845.156c-.5-2.627.716-4.821,2.056-7a30.122,30.122,0,0,0,4.128-10.6c1.259-6.887.926-13.959,1.757-20.9a72.369,72.369,0,0,1,2.006-10.19c1.009-3.757,2.17-7.545,2.25-11.466.075-3.7-.946-7.289-1.123-10.966a20.229,20.229,0,0,1,1.56-8.592c2.654-6.655,8.685-14.8,3.935-21.955-.3-.456.352-1.013.658-.553Z" transform="translate(-134.863 -152.498)" fill="#fff"/>
      </g>
      <path id="Path_19" data-name="Path 19" d="M175.14,374.5s8.259,2.928,11.8-8.747,8.566,5.919,17.114-5.319,2.142-2.147,11.371-23.353,24.046-13.923,19.391-29.97-17.069-13.283-30.154-1.368-13.43,7.91-20.748,16.607,8.266,8.934-2.555,17.507-8.53,24.981-7.7,28.46Z" transform="translate(-119.487 -204.54)" fill="url(#radial-gradient)"/>
      <g id="Group_7" data-name="Group 7" transform="translate(62.425 102.305)" opacity="0.1">
        <path id="Path_20" data-name="Path 20" d="M246.187,332.324c-5.513,3.159-11.1,6.422-15.651,10.915a28.166,28.166,0,0,0-5.584,7.552c-1.611,3.28-2.207,6.9-3.462,10.309-1.99,5.4-6.056,9.357-9.747,13.62a33.812,33.812,0,0,0-8.488,19.193c-.068.71-1.183.679-1.114-.038a33.674,33.674,0,0,1,6.8-17.5c4.425-5.734,9.831-10.224,12.068-17.366,1.95-6.225,3.759-11.533,8.453-16.278,4.662-4.712,10.474-8.11,16.183-11.381A.558.558,0,0,1,246.187,332.324Z" transform="translate(-202.137 -331.27)" fill="#fff"/>
      </g>
      <path id="Path_21" data-name="Path 21" d="M118.787,321.53a47.017,47.017,0,0,0,3.807,7.732l1.082-2.407c19.036-1.585,23.829-50.021,30.89-69.536,4.683-12.884-1.607-16.271-4.795-19.151-18.445,8.343-13.428,23.959-13.609,36.735-.191,13.463-9.836,3.226-7.585,16.432,2.269,13.189-12.919,5.021-8.516,17.931A14.48,14.48,0,0,1,118.787,321.53Z" transform="translate(-82.102 -164.616)" fill="#231f20" opacity="0.1"/>
      <path id="Path_22" data-name="Path 22" d="M129.1,318.826s-2.689-4.63,9-8.749,26.539,6.5,22.8-10.7,4.729-9.728,9.3-29.56-9.511-20.032.417-29.38,10.792-27.09-11.36-19.14S142.689,245.86,142.5,259.326s-9.841,3.228-7.58,16.422-12.928,5.02-8.52,17.939-10.517,20.36-9.358,24.968Z" transform="translate(-80.851 -151.578)" fill="#8396dd"/>
      <g id="Group_8" data-name="Group 8" transform="translate(42.214 76.776)" opacity="0.1">
        <path id="Path_23" data-name="Path 23" d="M180.829,249.437c-3.012,2.256-6.205,4.658-7.913,8.114-1.8,3.64-1.634,7.85-1.244,11.782.624,6.289,1.919,13.25-2.2,18.687a38.971,38.971,0,0,0-3.242,4.189,15.3,15.3,0,0,0-1.605,6.057c-.31,3.06-.344,6.232-1.676,9.07-2.964,6.312-10.1,7.94-15.183,11.927-6.048,4.742-8.467,11.965-10.234,19.162-.132.536-.957.3-.825-.24,1.442-5.875,3.252-11.852,7.285-16.514a27.314,27.314,0,0,1,7.982-6.044c3.331-1.794,6.834-3.667,9.1-6.8,2.411-3.332,2.3-7.358,2.762-11.262a14.791,14.791,0,0,1,3.382-8.158,16.592,16.592,0,0,0,4.316-11.263c.027-3.693-.684-7.33-.907-11.006-.22-3.63.049-7.4,1.869-10.627,1.849-3.281,4.947-5.6,7.9-7.814.442-.331.859.42.423.747Z" transform="translate(-136.692 -248.607)" fill="#fff"/>
      </g>
      <path id="Path_24" data-name="Path 24" d="M669.1,349.088l7.549-14.349,9.051-4.88-5.99-175.485Z" transform="translate(-462.462 -106.7)" fill="#393767"/>
      <path id="Path_25" data-name="Path 25" d="M345.153,320.925l-144.742-8.395,8.9-176.413c.385-7.931,6.666-14.716,14.119-15.2l28.811-1.777,55.09-3.418,33.573-2.064a13.648,13.648,0,0,1,14.826,14.651Z" transform="translate(-138.519 -78.537)" fill="#04bbf1"/>
      <path id="Path_26" data-name="Path 26" d="M239.1,324.63a95.482,95.482,0,0,1-15.975-31.971,85.21,85.21,0,0,1-3.578-17.376,130.588,130.588,0,0,1,.047-21.346,105.5,105.5,0,0,1,9.544-34.872c2.25-4.89,4.638-9.715,6.762-14.662,2.057-4.79,4.023-9.786,4.78-14.973a19.661,19.661,0,0,0-.123-6.838c-.349-1.716-.786-4.2-2.367-5.274-1.071-.724-2.481-.489-3.688-.371a18.028,18.028,0,0,1-4.931-.045c-4-.7-7.3-2.8-8.8-6.657a38.361,38.361,0,0,1-1.694-7.083,42.837,42.837,0,0,1-.891-9.082c.2-6.151,2.464-11.637,5.362-16.874l-.115.007c-7.453.485-13.734,7.271-14.119,15.2l-8.9,176.413,44.816,2.6a69.367,69.367,0,0,1-6.129-6.8Z" transform="translate(-138.519 -94.833)" fill="#232b57" opacity="0.1"/>
      <g id="Group_9" data-name="Group 9" transform="translate(131.81 51.619)" opacity="0.6">
        <path id="Path_27" data-name="Path 27" d="M429.847,167.792a2.518,2.518,0,0,0-2.906,1.739,2.148,2.148,0,0,0,1.38,2.853,2.518,2.518,0,0,0,2.911-1.736A2.147,2.147,0,0,0,429.847,167.792Zm6.577-.288a2.539,2.539,0,0,0-2.928,1.746,2.154,2.154,0,0,0,1.391,2.864,2.538,2.538,0,0,0,2.933-1.743A2.153,2.153,0,0,0,436.424,167.5Zm6.628-.29a2.56,2.56,0,0,0-2.951,1.754,2.16,2.16,0,0,0,1.4,2.874,2.558,2.558,0,0,0,2.956-1.75A2.159,2.159,0,0,0,443.052,167.213Z" transform="translate(-426.81 -167.146)" fill="#fff"/>
      </g>
      <path id="Path_28" data-name="Path 28" d="M383,586.435l-22.574-.791a2.74,2.74,0,0,1-2.621-2.918h0a2.885,2.885,0,0,1,2.931-2.753l22.42.712a2.894,2.894,0,0,1,2.862,2.676A2.944,2.944,0,0,1,383,586.435Zm-31.039-1.088L293.443,583.3a2.6,2.6,0,0,1-2.431-2.813h0a2.708,2.708,0,0,1,2.7-2.641l58.557,1.86a2.721,2.721,0,0,1,2.6,2.9h0A2.863,2.863,0,0,1,351.961,585.348Zm30.422,12.4L332.25,595.67a2.7,2.7,0,0,1-2.536-2.885,2.792,2.792,0,0,1,2.837-2.692l50.13,1.915a2.82,2.82,0,0,1,2.706,2.985h0A2.908,2.908,0,0,1,382.383,597.749Zm-89.228-9.161,31.2,1.192a2.679,2.679,0,0,1,2.521,2.872,2.771,2.771,0,0,1-2.818,2.679l-31.18-1.293a2.621,2.621,0,0,1-2.429-2.827h0A2.694,2.694,0,0,1,293.155,588.588ZM317.9,600.453l29.435,1.314a2.751,2.751,0,0,1,2.589,2.929,2.806,2.806,0,0,1-2.895,2.695l-29.425-1.41a2.687,2.687,0,0,1-2.493-2.876A2.734,2.734,0,0,1,317.9,600.453Zm-25.317-1.13,17.261.771a2.668,2.668,0,0,1,2.478,2.863,2.713,2.713,0,0,1-2.771,2.639l-17.237-.826a2.64,2.64,0,0,1-2.428-2.842h0A2.663,2.663,0,0,1,292.581,599.323Z" transform="translate(-200.355 -399.391)" fill="#fff" opacity="0.6"/>
      <path id="Path_29" data-name="Path 29" d="M404.028,276.87l-53.281.941a2.517,2.517,0,0,0-2.376,2.4l-2.726,51.4a2.205,2.205,0,0,0,2.117,2.395l53.081.914a2.535,2.535,0,0,0,2.533-2.4l2.925-53.251a2.228,2.228,0,0,0-2.274-2.407Z" transform="translate(-238.895 -191.365)" fill="#fff"/>
      <path id="Path_30" data-name="Path 30" d="M373.309,302.223l-.727,13.636L386,315.8l.739-13.749Zm10.066,10.7-7.9.051.422-7.914,7.9-.09Zm18.242-11.072-.752,13.875,13.891-.065.765-13.992Zm10.423,10.887-8.178.053.437-8.053,8.182-.093Zm-40.226,17.555-.725,13.611,13.39.17.737-13.723Zm10.047,10.865-7.883-.086.422-7.9,7.887.048Z" transform="translate(-256.487 -208.506)" fill="#77859a"/>
      <path id="Path_31" data-name="Path 31" d="M480.61,412.637l-7.592-.082.412-7.592,7.6.047Z" transform="translate(-326.938 -279.901)" fill="#77859a"/>
      <path id="Path_32" data-name="Path 32" d="M450.124,392.87l.336-6.208,5.41.02c.031-.821.071-1.642.106-2.463l-7.816-.018-.468,8.65Z" transform="translate(-309.433 -265.55)" fill="#77859a"/>
      <path id="Path_33" data-name="Path 33" d="M483.505,405.028l-.572,10.456-10.407-.13.564-10.39Z" transform="translate(-326.598 -279.901)" fill="#77859a"/>
      <path id="Path_34" data-name="Path 34" d="M488.049,321.7l-4.2.032.229-4.21,4.206-.043Z" transform="translate(-334.421 -219.436)" fill="#77859a"/>
      <path id="Path_35" data-name="Path 35" d="M395.414,322.58l-4.06.031.221-4.137,4.062-.042Z" transform="translate(-270.494 -220.092)" fill="#77859a"/>
      <path id="Path_36" data-name="Path 36" d="M390.5,414.616l-4.053-.04.221-4.129,4.054.03Z" transform="translate(-267.102 -283.69)" fill="#77859a"/>
      <path id="Path_37" data-name="Path 37" d="M436.249,424.73l-2.8-.035.336-6.24,2.8.024Z" transform="translate(-299.588 -289.225)" fill="#77859a"/>
      <path id="Path_38" data-name="Path 38" d="M448.934,424.856l-2.815-.035.338-6.255,2.817.025Z" transform="translate(-308.346 -289.302)" fill="#77859a"/>
      <path id="Path_39" data-name="Path 39" d="M437.664,392.76l-2.8-.021.474-8.8,2.805.006Z" transform="translate(-300.565 -265.371)" fill="#77859a"/>
      <path id="Path_40" data-name="Path 40" d="M440.621,323.636l1.008-18.652-2.811.036-1.16,21.519,22.21.011.161-2.939Z" transform="translate(-302.498 -210.797)" fill="#77859a"/>
      <path id="Path_41" data-name="Path 41" d="M388.881,369.305l-14.026-.01.153-2.865,14.029-.015Z" transform="translate(-259.09 -253.257)" fill="#77859a"/>
      <path id="Path_42" data-name="Path 42" d="M326.873,259.179l.322-6.081,6.442-.136c.03-.8.068-1.609.1-2.414l-8.745.2-.447,8.473ZM394.6,258l.349-6.337-6.941.147c.059-.832.11-1.664.165-2.5l9.449-.214-.489,8.857Zm-3.163,57.406-.348,6.311-6.909-.143c-.032.828-.072,1.657-.108,2.485l9.4.209.487-8.819Zm-67.479-1.144-.32,6.056,6.414.133c-.055.8-.1,1.6-.154,2.4l-8.7-.194.445-8.438Z" transform="translate(-222.003 -172.171)" fill="#77859a"/>
      <g id="Group_10" data-name="Group 10" transform="translate(113.299 150.968)" opacity="0.6">
        <path id="Path_43" data-name="Path 43" d="M369.6,491.716a1.22,1.22,0,0,1-.76,1.093,1.888,1.888,0,0,1-.806.142,3.059,3.059,0,0,1-.637-.07,2.229,2.229,0,0,1-.527-.207l.051-.961a2.886,2.886,0,0,0,.6.261,2.16,2.16,0,0,0,.58.1.561.561,0,0,0,.341-.076.27.27,0,0,0,.119-.212.238.238,0,0,0-.035-.144.487.487,0,0,0-.132-.127,5.455,5.455,0,0,0-.494-.268,2.313,2.313,0,0,1-.542-.356,1.007,1.007,0,0,1-.256-.388,1.3,1.3,0,0,1-.063-.513,1.082,1.082,0,0,1,.43-.853,1.682,1.682,0,0,1,1.072-.287,2.794,2.794,0,0,1,1.2.312l-.361.828a2.159,2.159,0,0,0-.912-.276.476.476,0,0,0-.3.068.235.235,0,0,0-.1.181.258.258,0,0,0,.1.213,4.205,4.205,0,0,0,.613.352,1.673,1.673,0,0,1,.66.514A1.094,1.094,0,0,1,369.6,491.716Zm2.537-1.906a.678.678,0,0,0-.594.3,1.619,1.619,0,0,0-.254.868q-.062,1.155.78,1.174a1.681,1.681,0,0,0,.5-.063,4.934,4.934,0,0,0,.49-.168l-.049.915a2.608,2.608,0,0,1-1.1.2,1.628,1.628,0,0,1-1.3-.555,2.179,2.179,0,0,1-.381-1.529,2.572,2.572,0,0,1,.282-1.087,1.731,1.731,0,0,1,.683-.711,1.929,1.929,0,0,1,1-.233,2.579,2.579,0,0,1,1.175.306l-.364.846a3.368,3.368,0,0,0-.416-.184A1.407,1.407,0,0,0,372.136,489.81Zm4.108,3.271-.15-.757-1.252-.028-.235.747-1.142-.026,1.471-4,1.389.028,1.058,4.06Zm-.318-1.651-.131-.663q-.046-.221-.111-.571t-.083-.5q-.031.139-.118.459t-.377,1.259Zm5.7,1.772-1.374-.031-1.262-2.865h-.024q.014.67,0,1.021l-.1,1.813-.925-.021.216-4.019,1.365.027,1.259,2.826h.016q0-.609.015-.978l.1-1.82.934.019Zm6.284-1.888a2.009,2.009,0,0,1-.944,1.833l.893,1.158-1.314-.03-.64-.913,0,0v0l0,0a1.759,1.759,0,0,1-1.377-.564,2.164,2.164,0,0,1-.405-1.561,2.271,2.271,0,0,1,.569-1.528,1.88,1.88,0,0,1,1.443-.5,1.756,1.756,0,0,1,1.384.556,2.174,2.174,0,0,1,.4,1.561Zm-2.685-.057q-.063,1.17.723,1.188a.692.692,0,0,0,.609-.272,1.64,1.64,0,0,0,.241-.883,1.583,1.583,0,0,0-.148-.9.638.638,0,0,0-.57-.3Q385.286,490.076,385.223,491.258Zm4.556.654-.08,1.472-1.058-.024.218-4.044,1.283.026q1.6.032,1.534,1.229a1.25,1.25,0,0,1-.725,1.075l1.048,1.79-1.2-.027-.752-1.491Zm.044-.822.2,0q.555.012.582-.495.023-.418-.522-.429l-.209,0Zm6.171-.787a.7.7,0,0,0-.611.308,1.625,1.625,0,0,0-.261.88q-.063,1.172.8,1.191a1.748,1.748,0,0,0,.511-.064,5.126,5.126,0,0,0,.5-.17l-.05.928a2.716,2.716,0,0,1-1.13.2,1.685,1.685,0,0,1-1.339-.564,2.186,2.186,0,0,1-.392-1.55,2.577,2.577,0,0,1,.29-1.1,1.765,1.765,0,0,1,.7-.721,2.005,2.005,0,0,1,1.032-.236,2.681,2.681,0,0,1,1.208.311l-.374.858a3.485,3.485,0,0,0-.428-.187A1.464,1.464,0,0,0,395.994,490.3Zm5.614,1.3a2.3,2.3,0,0,1-.576,1.552,1.91,1.91,0,0,1-1.466.5,1.794,1.794,0,0,1-1.4-.569,2.169,2.169,0,0,1-.411-1.574,2.278,2.278,0,0,1,.578-1.54,1.918,1.918,0,0,1,1.466-.507,1.792,1.792,0,0,1,1.406.561A2.179,2.179,0,0,1,401.608,491.607Zm-2.728-.058q-.064,1.18.735,1.2a.7.7,0,0,0,.619-.274,1.643,1.643,0,0,0,.245-.89,1.585,1.585,0,0,0-.15-.905.649.649,0,0,0-.579-.3q-.8-.017-.869,1.174Zm6.97.068a2.208,2.208,0,0,1-.636,1.563,2.142,2.142,0,0,1-1.574.518l-1.287-.029.222-4.076,1.377.028a1.988,1.988,0,0,1,1.454.533A1.868,1.868,0,0,1,405.849,491.616Zm-1.12.015a1.292,1.292,0,0,0-.171-.837.765.765,0,0,0-.643-.284l-.313-.006-.124,2.285.24.005a.886.886,0,0,0,.735-.276A1.473,1.473,0,0,0,404.729,491.632Zm4.234,2.186-2.375-.053.223-4.086,2.375.048-.048.887-1.3-.027-.035.643,1.2.025-.048.887-1.2-.026-.042.772,1.295.029Z" transform="translate(-366.87 -488.845)" fill="#fff"/>
      </g>
      <path id="Path_44" data-name="Path 44" d="M327.761,249.815l65.464,2.627-3.633,68.688-66.706-1.321-3.842-62.742Z" transform="translate(-220.514 -172.666)" fill="url(#linear-gradient)" style="mix-blend-mode: soft-light;isolation: isolate"/>
      <path id="Path_45" data-name="Path 45" d="M173.165,790.891s-.07,1.432.141,1.618a5.912,5.912,0,0,0,.753.494s-2.7,1.385-3.24.658-.341-3.77-.341-3.77Z" transform="translate(-117.804 -545.952)" fill="#f3be99"/>
      <path id="Path_46" data-name="Path 46" d="M176.313,799.676s1.77.1,1.924.917c.081.428,0,.492,0,.492h-9.111s-.3-.005-.279-.674l.115-2.143s.282-.167.776.28,1.642.7,2.866-.588c0,0,.183-.141.958.47S174.153,799.676,176.313,799.676Z" transform="translate(-116.702 -551.521)" fill="#28264a"/>
      <path id="Path_47" data-name="Path 47" d="M31.429,779.666s-1.392,1.582-1.236,1.816a5.91,5.91,0,0,0,.6.67s-2.964.649-3.3-.192,1.532-3.324,1.532-3.324Z" transform="translate(-18.974 -538.173)" fill="#f3be99"/>
      <path id="Path_48" data-name="Path 48" d="M32.03,792.5c-1.578-.147-8.192-3.975-8.192-3.975s-.292-.083-.1-.722l.659-2.042s.315-.089.678.469,1.408,1.1,2.921.164c0,0,.213-.089.806.7S33.6,792.641,32.03,792.5Z" transform="translate(-16.362 -543.091)" fill="#28264a"/>
      <path id="Path_49" data-name="Path 49" d="M66.69,433.287s8.515,33.891,5.884,44.08-41.321,57.519-41.321,57.519-2.044,1.08-2.908-.747,14.106-52.86,14.106-52.86l-1.176-29.255s-6.019-14.293-.953-25.634S66.69,433.287,66.69,433.287Z" transform="translate(-19.566 -292.142)" fill="#1d4370"/>
      <path id="Path_50" data-name="Path 50" d="M104.061,429.4s8.574,34.3,9.527,44.776S101.5,538.13,101.5,538.13a2.339,2.339,0,0,1-3.07-.161c-1.429-1.429-7.957-52.227-7.957-52.227s-9.793-23.257-13.733-28.921c-6.463-5.332-10.97-16.7-10.017-29.083S104.061,429.4,104.061,429.4Z" transform="translate(-46.03 -292.113)" fill="#1d4370"/>
      <path id="Path_51" data-name="Path 51" d="M216.818,222.19c.157.225.941,1.166.719,1.691s-1,.5-1,.5Z" transform="translate(-149.665 -153.572)" fill="#f69982"/>
      <path id="Path_52" data-name="Path 52" d="M184.8,205.778l-.636,8.486a1.854,1.854,0,0,1-1.9,1.748l-4.295-.941s-.983,2.968-1.794,3.385c-1.342.689-6.993,1.329-6.581-.122,1.3-4.559,6.874-15.283,6.874-15.283Z" transform="translate(-117.207 -140.343)" fill="#f3ab9c"/>
      <path id="Path_53" data-name="Path 53" d="M189.37,216.068s-2.876-2.087-2.663-3.327c1.447-.022,6.939,2.987,6.939,2.987l-3.839-.877Zm7.266-10.51-.093,1.193a14.474,14.474,0,0,1-4.516-1.438s-.681,1.634-1.193,1.581.067-4.162.067-4.162Z" transform="translate(-129.039 -140.124)" fill="#f69982"/>
      <path id="Path_54" data-name="Path 54" d="M179.276,183.8c11.44-4.9,16.337,5.942,13.768,8s-10.314-1.2-10.314-1.2a6.283,6.283,0,0,1-.372,2.224c-.137.6-.744.31-1.044-.21-.5-.685.23-2.544-.83-2.22-1.785.546-.228,2.5-.89,4.3-.815,2.218-4.109,4.479-4.109,4.479a10.359,10.359,0,0,1-1.121-6.371C174.741,190.664,174.411,185.882,179.276,183.8Z" transform="translate(-120.427 -126.164)" fill="#393767"/>
      <path id="Path_55" data-name="Path 55" d="M255.6,265.427c.235-.071,2.565-1.574,2.565-1.574a26.017,26.017,0,0,1,2.141-3.718c.72-.793,3.449-.657,3.6-.575s.676.756-.069,1.045a6.4,6.4,0,0,1-2.08.212l2.956,2.392-2.634,2.6s-.714,1.239-1.7,1.153-4,1.591-4,1.591Z" transform="translate(-176.665 -179.357)" fill="#e2a17d"/>
      <path id="Path_56" data-name="Path 56" d="M209.024,273.431c.389.209.864,4.053.864,4.053L189.6,291.331l-4.4-10.505Z" transform="translate(-128.008 -188.988)" fill="#eadfcc"/>
      <path id="Path_57" data-name="Path 57" d="M291.036,230.921,273.3,245.481a1.579,1.579,0,0,1-2.381-.4l-4.95-7.727a1.885,1.885,0,0,1-.128-1.685,1.94,1.94,0,0,1,.522-.753l15.841-13.941c.024-.021.048-.042.073-.062s.037-.029.055-.042l.023-.017.019-.014.056-.039.064-.041.021-.013.074-.042c.027-.015.055-.029.082-.043l.083-.038.083-.034.059-.021.012,0,.041-.013.059-.018.074-.02.012,0,.1-.021h.007c.033-.006.065-.011.1-.015l.025,0c.025,0,.049-.006.075-.007.054,0,.106-.006.159,0a.737.737,0,0,1,.077,0l.044,0,.049,0,.053.006c.041.005.081.013.122.021a.62.62,0,0,1,.062.015c.023.005.045.011.066.017s.061.019.09.029a.478.478,0,0,1,.056.022,1.448,1.448,0,0,1,.246.124c.022.013.042.027.063.041l0,0c.022.015.043.031.065.048v0c.019.014.036.028.053.043l.022.018.052.048,0,0c.02.02.04.04.059.061l6.56,7.2a1.893,1.893,0,0,1-.274,2.749Z" transform="translate(-183.648 -152.378)" fill="url(#linear-gradient-2)"/>
      <path id="Path_58" data-name="Path 58" d="M294.139,230.907,277.955,244.2a1.615,1.615,0,0,1-2.419-.379l-5.064-7.692a1.863,1.863,0,0,1-.138-1.685,1.952,1.952,0,0,1,.525-.758l14.451-12.718a2.07,2.07,0,0,1,.88-.461,1.686,1.686,0,0,1,1.662.458l6.56,7.2a1.893,1.893,0,0,1-.273,2.749Z" transform="translate(-186.752 -152.364)" fill="#3e266f"/>
      <path id="Path_59" data-name="Path 59" d="M277.9,245.316a.979.979,0,0,1-.285-.285l-5.109-7.678a1.016,1.016,0,0,1-.145-.726,1.126,1.126,0,0,1,.366-.673L287.273,223.2a1.1,1.1,0,0,1,1.138-.218.867.867,0,0,1,.313.221l6.5,7.218a1.023,1.023,0,0,1,.259.8,1.138,1.138,0,0,1-.417.766L279,245.242A.913.913,0,0,1,277.9,245.316Z" transform="translate(-188.241 -154.072)" fill="url(#linear-gradient-3)"/>
      <path id="Path_60" data-name="Path 60" d="M304.152,245.756l-4.38-5.161a.323.323,0,0,0-.449-.013l-5.658,4.622a.314.314,0,0,0-.071.44l4.364,5.214a.324.324,0,0,0,.454.014l5.674-4.675a.313.313,0,0,0,.067-.44Z" transform="translate(-202.883 -166.226)" fill="#fff"/>
      <path id="Path_61" data-name="Path 61" d="M302.373,244.661l-1.49,1.218L302,247.2l1.491-1.222Zm-.287,2.014-.659-.78.863-.706.659.779Zm2.631.753-1.492,1.225,1.126,1.334,1.493-1.228Zm-.284,2.026-.663-.785.864-.71.663.783Zm-5.131-2.28-1.5,1.224,1.117,1.332,1.5-1.227Zm-.294,2.023-.658-.784.867-.709.658.783Z" transform="translate(-205.835 -169.104)" fill="#77859a"/>
      <path id="Path_62" data-name="Path 62" d="M307.9,265.074l-.616-.733.82-.674.616.733Z" transform="translate(-212.388 -182.24)" fill="#77859a"/>
      <path id="Path_63" data-name="Path 63" d="M307.19,260.29l.672-.552.442.525.263-.221-.639-.759-.937.769Z" transform="translate(-212.184 -179.21)" fill="#77859a"/>
      <path id="Path_64" data-name="Path 64" d="M308.271,264.67l-1.123.925-.842-1,1.123-.922Z" transform="translate(-211.71 -182.24)" fill="#77859a"/>
      <path id="Path_65" data-name="Path 65" d="M318.658,257.252l-.341-.4.451-.371.341.4Z" transform="translate(-220.013 -177.271)" fill="#77859a"/>
      <path id="Path_66" data-name="Path 66" d="M311.034,248.238l-.339-.4.451-.369.339.4Z" transform="translate(-214.744 -171.044)" fill="#77859a"/>
      <path id="Path_67" data-name="Path 67" d="M300.988,256.457l-.338-.4.453-.371.338.4Z" transform="translate(-207.802 -176.722)" fill="#77859a"/>
      <path id="Path_68" data-name="Path 68" d="M303.279,261.918l-.23-.275.679-.557.231.275Z" transform="translate(-209.46 -180.456)" fill="#77859a"/>
      <path id="Path_69" data-name="Path 69" d="M304.322,263.16l-.231-.275.679-.557.231.275Z" transform="translate(-210.18 -181.314)" fill="#77859a"/>
      <path id="Path_70" data-name="Path 70" d="M306.135,259.069l-.231-.275.956-.784.231.274Z" transform="translate(-211.433 -178.331)" fill="#77859a"/>
      <path id="Path_71" data-name="Path 71" d="M310.6,253.014l2.014-1.652-.231-.273L310.054,253l1.809,2.146.315-.259Z" transform="translate(-214.301 -173.546)" fill="#77859a"/>
      <path id="Path_72" data-name="Path 72" d="M305.9,251.981l-1.17-1.388.314-.257,1.17,1.387Z" transform="translate(-210.62 -173.026)" fill="#77859a"/>
      <path id="Path_73" data-name="Path 73" d="M275.822,282.6l-1.1-1.672a.383.383,0,0,0-.587-.076h0a.527.527,0,0,0-.1.666l1.084,1.676a.393.393,0,0,0,.6.086h0A.532.532,0,0,0,275.822,282.6Z" transform="translate(-189.355 -194.044)" fill="#3e266f"/>
      <path id="Path_74" data-name="Path 74" d="M284.827,221.058l-18.795,16.388-.059-.091a1.886,1.886,0,0,1-.127-1.685l17.241-15.155.011,0c.034-.008.068-.015.1-.02h.007c.032-.006.064-.011.1-.015l.025,0c.025,0,.05-.006.075-.007.054,0,.106-.005.159,0a.735.735,0,0,1,.077,0l.044,0,.049,0,.053.006c.041,0,.081.013.122.021a.534.534,0,0,1,.063.014l.066.018.09.029.057.022a1.523,1.523,0,0,1,.247.125l.063.041,0,0c.022.015.044.032.065.048l0,0c.018.014.036.028.053.043l.022.019.051.047,0,0c.02.02.04.04.059.061Z" transform="translate(-183.649 -152.377)" opacity="0.5" fill="url(#linear-gradient-4)" style="mix-blend-mode: soft-light;isolation: isolate"/>
      <path id="Path_75" data-name="Path 75" d="M302.755,245.116l-20.364,16.9.066.1a1.6,1.6,0,0,0,1.522.767l19.217-15.8,0-.012c.013-.036.024-.071.034-.107a.016.016,0,0,0,0-.007c.01-.034.019-.068.027-.1,0-.009,0-.017.006-.026.006-.027.012-.053.016-.081a1.693,1.693,0,0,0,.021-.172c0-.028,0-.057.005-.084s0-.032,0-.048,0-.037,0-.054,0-.039,0-.059a1.278,1.278,0,0,0-.012-.136.586.586,0,0,0-.01-.07c0-.025-.008-.05-.014-.074s-.015-.068-.024-.1-.012-.044-.019-.065a1.739,1.739,0,0,0-.117-.286c-.012-.025-.027-.049-.04-.074l0,0c-.015-.026-.031-.052-.049-.078l0,0c-.014-.021-.028-.043-.043-.064s-.013-.018-.019-.027-.032-.042-.048-.063l0-.005c-.02-.025-.041-.049-.063-.073Z" transform="translate(-195.181 -169.418)" opacity="0.5" fill="url(#linear-gradient-5)" style="mix-blend-mode: soft-light;isolation: isolate"/>
      <path id="Path_76" data-name="Path 76" d="M271.959,259.066a4.149,4.149,0,0,0,2.246-.614.716.716,0,0,0,.1-1.15c-.737-.529-2.957.38-3.453,1.122S271.959,259.066,271.959,259.066Z" transform="translate(-187.141 -177.731)" fill="#e2a17d"/>
      <path id="Path_77" data-name="Path 77" d="M96.515,242.609s25.286,4.013,18.635,24.659-8.723,24.249-8.723,24.249,1.555,23.311-2.909,25.188c-14.772,6.209-38.109-9-37.8-12.842S78.153,250.166,96.515,242.609Z" transform="translate(-45.418 -167.685)" fill="#1d4370"/>
      <path id="Path_78" data-name="Path 78" d="M157.679,343.821a45.137,45.137,0,0,1-4.1-5.9c-1.594-2.665-2.948-5.457-4.29-8.254.355,4.844.933,9.692,1.092,14.577.222,6.807.479,13.964-1.733,20.5-2.181,6.445-7,10.594-13.369,12.445,5.6,1.451,11.432,1.744,16.323-.312,4.463-1.876,2.909-25.188,2.909-25.188A66.043,66.043,0,0,0,157.679,343.821Z" transform="translate(-93.499 -227.856)" fill="#232b57" opacity="0.1"/>
      <path id="Path_79" data-name="Path 79" d="M284.971,282.756s-.875-1.776-.434-2.525,2.265-1.375,2.265-1.375Z" transform="translate(-196.579 -192.738)" fill="#e2a17d"/>
      <path id="Path_80" data-name="Path 80" d="M284.19,277.105a12.759,12.759,0,0,0,.552-3.209,7.363,7.363,0,0,1,1.355-3.823c.536-.66,3.137-4.471,3.745-4.275s.952.549.128,1.6c-.671.858-1.54,2.231-1.54,2.231a4.131,4.131,0,0,1,1.56,2.453c.159,1.422-2.094,3.531-2.094,3.531l-.856,2.735Z" transform="translate(-196.425 -183.708)" fill="#f3be99"/>
      <path id="Path_81" data-name="Path 81" d="M236.432,296.2s1.89-1.7,3.659,1.349c0,0-10.183,34.171-19.743,33.135-5.014-.543-6.63-9.92-4.593-14.182S236.432,296.2,236.432,296.2Z" transform="translate(-148.532 -204.396)" fill="#fff"/>
      <path id="Path_82" data-name="Path 82" d="M182.885,266.418c6.514,2.662,12.2,21.417,12.87,29.416.328,3.907-1.156,17.541-9.391,12.561-5.24-3.169-12.87-17.683-16.593-27.7C168.082,276.155,166.432,259.693,182.885,266.418Z" transform="translate(-116.635 -183.04)" fill="#fff"/>
      <path id="Path_83" data-name="Path 83" d="M193.566,209.066s-.214-.566-.522-.458-.729,1.536-.378,1.657c.015.005.115-1.091.338-1.245S193.566,209.066,193.566,209.066Z" transform="translate(-133.074 -144.175)" fill="#f69982"/>
      <path id="Path_84" data-name="Path 84" d="M174.162,241.747c.091.114,2.1-2.383,1.666-2.466s-6.841-3.413-8.111-3.228-3.537,2.1-2.071,2.855S173.172,240.5,174.162,241.747Z" transform="translate(-114.161 -163.149)" fill="#fff"/>
      <g id="Group_11" data-name="Group 11" transform="translate(104.585 20.666)" opacity="0.3">
        <path id="Path_85" data-name="Path 85" d="M339.871,70.53a.609.609,0,1,0-.609.609.609.609,0,0,0,.609-.609Zm3.53,0a.609.609,0,1,0-.608.609.608.608,0,0,0,.608-.609Zm3.53,0a.609.609,0,1,0-.609.609.609.609,0,0,0,.609-.609Zm3.53,0a.609.609,0,1,0-.609.609.608.608,0,0,0,.609-.609Zm3.53,0a.609.609,0,1,0-.609.609.609.609,0,0,0,.609-.609Zm3.53,0a.609.609,0,1,0-.609.609.609.609,0,0,0,.609-.609Zm-13.01-3a.609.609,0,1,0-.609.609.609.609,0,0,0,.609-.609Zm3.53,0a.609.609,0,1,0-.609.609.609.609,0,0,0,.609-.609Zm3.53,0a.609.609,0,1,0-.609.609.609.609,0,0,0,.609-.609Zm3.53,0a.609.609,0,1,0-.609.609.609.609,0,0,0,.609-.609Zm3.53,0a.609.609,0,1,0-.609.609.609.609,0,0,0,.609-.609Zm3.53,0a.609.609,0,1,0-.609.609.609.609,0,0,0,.609-.609Z" transform="translate(-338.654 -66.917)" fill="#55358d"/>
      </g>
      <path id="Path_86" data-name="Path 86" d="M477.931,48.779h-1.98V46.8a.391.391,0,0,0-.782,0v1.98H473.19a.391.391,0,1,0,0,.782h1.98v1.98a.391.391,0,0,0,.782,0v-1.98h1.98a.391.391,0,0,0,0-.782Z" transform="translate(-326.786 -32.076)" fill="#55358d" opacity="0.5"/>
      <path id="Path_87" data-name="Path 87" d="M752.114,307.91a2.459,2.459,0,1,1,2.459-2.459A2.458,2.458,0,0,1,752.114,307.91Zm0-3.97a1.511,1.511,0,1,0,1.512,1.511A1.511,1.511,0,0,0,752.114,303.94Z" transform="translate(-518.143 -209.421)" fill="#55358d"/>
      <path id="Path_88" data-name="Path 88" d="M117.016,149.767l1.247-1.247a.348.348,0,1,0-.493-.492l-1.247,1.247-1.247-1.247a.348.348,0,1,0-.492.492l1.247,1.247-1.247,1.247a.348.348,0,1,0,.492.493l1.247-1.247,1.247,1.247a.348.348,0,0,0,.493-.493Z" transform="translate(-79.265 -102.242)" fill="#833c9a" opacity="0.3"/>
    </g>
  </g>
</svg>
