<svg xmlns="http://www.w3.org/2000/svg" width="160.311" height="137.478" viewBox="0 0 160.311 137.478">
  <g id="sign-up-account" transform="translate(-200.569 -350)">
    <path id="Path_154" data-name="Path 154" d="M348.187,586.246a6.347,6.347,0,1,0,6.347-6.347,6.347,6.347,0,0,0-6.347,6.347m-77.111-61.53a3.116,3.116,0,1,0,3.116-3.116,3.116,3.116,0,0,0-3.116,3.116m-63.1,119.157H343.642c5.453,0,8.2-8.677,8.348-14.13a15.1,15.1,0,0,0-7.821-13.435c-4.819-2.566-11.281-2.551-14.955-6.675-3.9-4.384-2.658-11.342.16-16.49s6.973-9.624,8.692-15.237a21.649,21.649,0,0,0-3.109-18.216,28.024,28.024,0,0,0-15.352-10.739,26.236,26.236,0,0,0-16.765.359A18.794,18.794,0,0,0,291.5,561.248c-.939,3.322-.787,6.851-1.321,10.265s-1.986,7-5.026,8.631c-4.155,2.23-9.142,0-13.748-1.016-11.495-2.528-24.326,3.987-29.069,14.756-2.429,5.514-2.849,11.693-4.537,17.483s-5.255,11.678-11.059,13.3c-6.072,1.7-12.709-1.764-18.774-.031a10.2,10.2,0,0,0-7.37,8.44c-.374,3.949,3.475,10.1,7.378,10.792" transform="translate(0 -158.494)" fill="#04bbf1"/>
    <path id="Path_155" data-name="Path 155" d="M1854.382,1602.887h-.015a.13.13,0,0,1-.115-.145,39.517,39.517,0,0,0-2.589-19.316.138.138,0,0,1,.061-.176.13.13,0,0,1,.176.069,39.792,39.792,0,0,1,2.612,19.453.122.122,0,0,1-.13.115" transform="translate(-1524.976 -1139.046)" fill="#01184a"/>
    <path id="Path_156" data-name="Path 156" d="M1822.013,1706.712h-.023a.122.122,0,0,1-.107-.145c.588-4.178-.436-6.744-1.405-8.172a6.784,6.784,0,0,0-2.261-2.1.138.138,0,0,1,.115-.245,6.585,6.585,0,0,1,2.352,2.184c1,1.466,2.062,4.1,1.451,8.371a.122.122,0,0,1-.122.115m9.96.359a.13.13,0,0,1-.13-.115c-.558-5.69,1.8-8.959,1.825-8.99a.13.13,0,0,1,.085-.054.131.131,0,0,1,.129.207c-.023.031-2.322,3.231-1.78,8.814a.13.13,0,0,1-.115.137h-.015" transform="translate(-1494.043 -1243.238)" fill="#13417c"/>
    <path id="Path_157" data-name="Path 157" d="M1957.012,1554.859a.13.13,0,0,1-.13-.115c-1.566-16.4,1.4-23.356,1.428-23.425a.13.13,0,0,1,.176-.069.145.145,0,0,1,.069.176c-.031.061-2.971,6.973-1.413,23.3a.13.13,0,0,1-.115.138h-.015" transform="translate(-1621.748 -1091.018)" fill="#01184a"/>
    <path id="Path_158" data-name="Path 158" d="M1914.784,1423.207a.13.13,0,0,1-.13-.122c-1.474-13.7-.756-33.667-.749-33.866a.129.129,0,0,1,.043-.09.131.131,0,0,1,.094-.033.123.123,0,0,1,.122.138c-.008.2-.718,20.141.749,33.828a.137.137,0,0,1-.115.145h-.015" transform="translate(-1582.308 -959.733)" fill="#13417c"/>
    <path id="Path_159" data-name="Path 159" d="M1821.369,1824.9l-.336,4.178-.176,2.184-.13,1.627-.176,2.184-.305,3.842a9.471,9.471,0,0,1-9.44,8.715h-.443a9.47,9.47,0,0,1-9.44-8.714l-.306-3.842-.176-2.184-.13-1.627-.176-2.184-.336-4.178Z" transform="translate(-1477.085 -1362.251)" fill="#fff"/>
    <path id="Path_160" data-name="Path 160" d="M1825.1,1879.6l-.176,2.185h-20.546l-.176-2.185Z" transform="translate(-1481.149 -1412.773)" fill="#13417c"/>
    <path id="Path_161" data-name="Path 161" d="M1828.486,1929.5l-.176,2.184h-19.935l-.176-2.184Z" transform="translate(-1484.844 -1458.862)" fill="#13417c"/>
    <path id="Path_162" data-name="Path 162" d="M1623.452,1578.388s-8.363-9.547-16.673-5.148c0,0-.619,6.263,5.331,8.554s11.342-3.406,11.342-3.406m15.008,2.1s3.315-12.251,12.709-11.953c0,0,3.315,5.346-1.023,10.028s-11.686,1.925-11.686,1.925" transform="translate(-1298.789 -1125.462)" fill="#007483"/>
    <path id="Path_163" data-name="Path 163" d="M1623.056,1270.37s-3.07-19.8-17.666-23.433c0,0-4,5.583,0,14.138s12.648,2.88,17.666,9.3m8.959-3.437s3.07-19.8,17.674-23.433c0,0,3.995,5.576,0,14.13s-12.648,2.887-17.674,9.3" transform="translate(-1295.881 -825.257)" fill="#007483"/>
    <path id="Path_164" data-name="Path 164" d="M1685.058,965.107S1672,941.254,1699.05,929.4c0,0,1.023,28.451-13.992,35.706m-4.988,13.733a.122.122,0,0,1-.122-.084c-.046-.115-4.376-11.938-13.779-18.163a.122.122,0,0,1-.038-.176.138.138,0,0,1,.183-.038c9.471,6.271,13.832,18.17,13.878,18.292a.13.13,0,0,1-.076.16h-.046" transform="translate(-1353.605 -535.147)" fill="#007483"/>
    <path id="Path_165" data-name="Path 165" d="M1660.892,1645.915a.13.13,0,0,1-.076-.023,26.144,26.144,0,0,0-12.4-4.132.13.13,0,0,1-.122-.138.138.138,0,0,1,.138-.122,26.435,26.435,0,0,1,12.526,4.178.138.138,0,0,1,.038.183.13.13,0,0,1-.107.053" transform="translate(-1337.153 -1192.859)" fill="#01184a"/>
    <path id="Path_166" data-name="Path 166" d="M1983.676,1298.574h-.053a.123.123,0,0,1-.069-.168,68.249,68.249,0,0,1,4.491-8.478c2.513-4.01,6.385-9.058,10.594-10.318a.122.122,0,0,1,.16.084.138.138,0,0,1-.092.168c-7.9,2.368-14.84,18.483-14.909,18.644a.13.13,0,0,1-.122.076" transform="translate(-1646.793 -858.601)" fill="#13417c"/>
    <path id="Path_167" data-name="Path 167" d="M349.127,429.066a.122.122,0,0,1-.13-.13,57.641,57.641,0,0,1,1.046-10.968c1.054-5.507,3.422-13.015,8.669-17.521a.122.122,0,0,1,.183.008.13.13,0,0,1-.015.183c-5.194,4.46-7.531,11.915-8.585,17.384a58.114,58.114,0,0,0-1.039,10.907A.137.137,0,0,1,349.127,429.066Zm8.554,25.785h-.053a.122.122,0,0,1-.069-.168,16.792,16.792,0,0,1,10.876-8.883.145.145,0,0,1,.16.1.13.13,0,0,1-.1.153,16.529,16.529,0,0,0-10.7,8.73.115.115,0,0,1-.115.076M288.125,477.3V355.056A5.064,5.064,0,0,0,283.061,350h-58.6a5.056,5.056,0,0,0-5.056,5.056V477.3a5.056,5.056,0,0,0,5.056,5.056h58.6a5.064,5.064,0,0,0,5.064-5.056" transform="translate(-17.392)" fill="#01184a"/>
    <path id="Path_168" data-name="Path 168" d="M314.824,477.3V355.056A5.056,5.056,0,0,0,309.768,350h-58.6a5.064,5.064,0,0,0-5.064,5.056V477.3a5.064,5.064,0,0,0,5.064,5.056h58.6a5.056,5.056,0,0,0,5.056-5.056" transform="translate(-42.053)" fill="#13417c"/>
    <path id="Path_169" data-name="Path 169" d="M349.7,393.9H292.322A2.322,2.322,0,0,0,290,396.214V517.12a2.429,2.429,0,0,0,2.429,2.429H349.6a2.421,2.421,0,0,0,2.421-2.429V396.214A2.314,2.314,0,0,0,349.7,393.9" transform="translate(-82.6 -40.547)" fill="#e5f1f7"/>
    <path id="Path_170" data-name="Path 170" d="M371.433,440.6v1.153h1.153v1.512h-1.153v1.153H365.3V440.6Z" transform="translate(-152.149 -83.68)" fill="#fff"/>
    <rect id="Rectangle_12" data-name="Rectangle 12" width="1.115" height="2.823" transform="translate(213.686 357.416)" fill="#e46449"/>
    <rect id="Rectangle_13" data-name="Rectangle 13" width="1.115" height="2.823" transform="translate(215.099 357.416)" fill="#e46449"/>
    <rect id="Rectangle_14" data-name="Rectangle 14" width="1.115" height="2.823" transform="translate(216.519 357.416)" fill="#e46449"/>
    <rect id="Rectangle_15" data-name="Rectangle 15" width="0.718" height="4.501" transform="translate(261.743 356.637)" fill="#fff"/>
    <rect id="Rectangle_16" data-name="Rectangle 16" width="0.718" height="3.465" transform="translate(260.055 357.676)" fill="#fff"/>
    <rect id="Rectangle_17" data-name="Rectangle 17" width="0.718" height="2.449" transform="translate(258.359 358.692)" fill="#fff"/>
    <rect id="Rectangle_18" data-name="Rectangle 18" width="0.718" height="1.593" transform="translate(256.663 359.547)" fill="#fff"/>
    <rect id="Rectangle_19" data-name="Rectangle 19" width="142.979" height="3.26" transform="translate(204.582 484.218)"/>
    <path id="Path_171" data-name="Path 171" d="M415.847,593.647H365.3v-6.614a5.133,5.133,0,0,1,5.133-5.133h40.281a5.133,5.133,0,0,1,5.133,5.133Z" transform="translate(-152.149 -214.188)" fill="#13417c"/>
    <path id="Path_172" data-name="Path 172" d="M531.2,630.2h1.344a.741.741,0,0,1,.5.145.694.694,0,0,1,.237.4,3.2,3.2,0,0,1,.061.672,1.368,1.368,0,0,1-.1.58.535.535,0,0,1-.336.29.39.39,0,0,1,.29.2.825.825,0,0,1,.092.428l-.015,1.65h-.855v-1.711q0-.183-.069-.229a.435.435,0,0,0-.26-.053v1.993H531.2Zm1.1,1.619c.122,0,.183-.138.183-.4a1.945,1.945,0,0,0-.015-.26.206.206,0,0,0-.053-.122.191.191,0,0,0-.122-.03h-.2v.81Z" transform="translate(-305.378 -258.799)" fill="#fff"/>
    <path id="Path_173" data-name="Path 173" d="M563,634.569V630.2h1.749v.84h-.855v.855h.825v.825h-.825v1h.916v.848Z" transform="translate(-334.749 -258.799)" fill="#fff"/>
    <path id="Path_174" data-name="Path 174" d="M590.229,633.724a1.8,1.8,0,0,1-.229-1.008V630.83a1.381,1.381,0,0,1,.267-.917,1.014,1.014,0,0,1,.81-.313,1,1,0,0,1,.672.176.917.917,0,0,1,.328.5,3.261,3.261,0,0,1,.092.848h-.855v-.389a.535.535,0,0,0-.046-.244.145.145,0,0,0-.153-.084q-.252,0-.252.321v2.123a.627.627,0,0,0,.053.3.176.176,0,0,0,.176.1.191.191,0,0,0,.183-.1.755.755,0,0,0,.046-.3v-.626h-.229v-.756h1.069v2.543h-.351l-.153-.367a.771.771,0,0,1-.718.412.806.806,0,0,1-.71-.336" transform="translate(-359.687 -258.245)" fill="#fff"/>
    <rect id="Rectangle_20" data-name="Rectangle 20" width="0.848" height="4.373" transform="translate(232.78 371.401)" fill="#fff"/>
    <path id="Path_175" data-name="Path 175" d="M637.06,633.763a1.413,1.413,0,0,1-.26-.955v-.428h.855v.55c0,.214.076.321.214.321a.176.176,0,0,0,.16-.069.428.428,0,0,0,.046-.229.915.915,0,0,0-.054-.351.631.631,0,0,0-.13-.237,2.95,2.95,0,0,0-.283-.29l-.374-.382a1.368,1.368,0,0,1-.183-1.795.971.971,0,0,1,.756-.3,1.148,1.148,0,0,1,.848.313,1.506,1.506,0,0,1,.26.985h-.894v-.305a.2.2,0,0,0-.336-.13.207.207,0,0,0-.053.153.641.641,0,0,0,.245.443l.512.489a2.7,2.7,0,0,1,.29.328,1.2,1.2,0,0,1,.191.367,1.605,1.605,0,0,1,.069.5,1.665,1.665,0,0,1-.237.978.889.889,0,0,1-.779.336,1.161,1.161,0,0,1-.863-.3" transform="translate(-402.912 -258.245)" fill="#fff"/>
    <path id="Path_176" data-name="Path 176" d="M667.319,634.569V631.04H666.8v-.84h1.909v.84h-.519v3.529Z" transform="translate(-430.621 -258.799)" fill="#fff"/>
    <path id="Path_177" data-name="Path 177" d="M695,630.2h1.344a.741.741,0,0,1,.5.145.657.657,0,0,1,.237.4,2.757,2.757,0,0,1,.061.672,1.512,1.512,0,0,1-.092.58.558.558,0,0,1-.336.29.374.374,0,0,1,.283.2.825.825,0,0,1,.092.428v1.65h-.863v-1.711c0-.122-.023-.2-.076-.229a.506.506,0,0,0-.26-.053v1.993H695Zm1.1,1.619c.122,0,.183-.138.183-.4a1.168,1.168,0,0,0-.015-.26.145.145,0,0,0-.168-.153h-.206v.81Zm1.214,2.75.42-4.369h1.482l.42,4.369H698.8l-.061-.7h-.527l-.054.7Zm.97-1.405h.4l-.2-2.223h-.038Z" transform="translate(-456.667 -258.799)" fill="#fff"/>
    <path id="Path_178" data-name="Path 178" d="M757.819,634.569V631.04H757.3v-.84h1.917v.84H758.7v3.529Z" transform="translate(-514.209 -258.799)" fill="#fff"/>
    <rect id="Rectangle_21" data-name="Rectangle 21" width="0.848" height="4.373" transform="translate(245.207 371.401)" fill="#fff"/>
    <path id="Path_179" data-name="Path 179" d="M800.475,633.732a1.361,1.361,0,0,1-.275-.909v-2.077a1.188,1.188,0,0,1,.275-.855,1.069,1.069,0,0,1,.81-.29,1.051,1.051,0,0,1,.8.29,1.187,1.187,0,0,1,.275.855v2.077a1.368,1.368,0,0,1-.275.917,1,1,0,0,1-.8.321.985.985,0,0,1-.81-.328m.962-.58a.7.7,0,0,0,.046-.283V630.73a.665.665,0,0,0-.038-.237.168.168,0,0,0-.16-.084c-.145,0-.214.107-.214.328v2.131a.72.72,0,0,0,.046.29.168.168,0,0,0,.168.092.145.145,0,0,0,.153-.1" transform="translate(-553.832 -258.245)" fill="#fff"/>
    <path id="Path_180" data-name="Path 180" d="M833.1,634.569V630.2h.9l.4,2.093V630.2h.84v4.369h-.855l-.435-2.184v2.184Z" transform="translate(-584.219 -258.799)" fill="#fff"/>
    <path id="Path_181" data-name="Path 181" d="M408.476,804.088h-35.8a7.37,7.37,0,0,1-7.378-7.37V735.7h50.547v61.018a7.37,7.37,0,0,1-7.37,7.37" transform="translate(-152.149 -356.241)" fill="#fff"/>
    <rect id="Rectangle_22" data-name="Rectangle 22" width="50.547" height="12.763" transform="translate(213.151 466.17)" fill="#fff"/>
    <path id="Path_182" data-name="Path 182" d="M632.487,784.679a5.728,5.728,0,0,1-1.619,4,5.183,5.183,0,0,1-.947.787,5.728,5.728,0,0,1-6.355,0,5.3,5.3,0,0,1-1-.848A5.713,5.713,0,0,1,621,784.679a5.583,5.583,0,0,1,.336-1.932,5.744,5.744,0,0,1,11.151,1.932" transform="translate(-388.318 -396.177)" fill="#bde0fe"/>
    <path id="Path_183" data-name="Path 183" d="M509.717,810.542a1.642,1.642,0,1,0-1.642,1.642,1.642,1.642,0,0,0,1.642-1.642m1.535,5.209v1.39a5.728,5.728,0,0,1-6.355,0v-1.39a2.23,2.23,0,0,1,2.23-2.23h1.894a2.23,2.23,0,0,1,2.23,2.23M522,867.359H495.366a2.7,2.7,0,1,1,0-5.4H522a2.7,2.7,0,1,1,0,5.4" transform="translate(-269.651 -423.85)" fill="#13417c"/>
    <path id="Path_184" data-name="Path 184" d="M1297.442,533.449c-.519-.917-1.291-1.642-1.879-2.513a3.426,3.426,0,0,1-.588-3.025c.221-.565.657-1,.848-1.573a3.242,3.242,0,0,0,.046-1.619,6.459,6.459,0,0,1-.137-1.619,1.7,1.7,0,0,1,.749-1.344,2.025,2.025,0,0,1,1.046-.145,18.941,18.941,0,0,1,8.241,2.429,4.644,4.644,0,0,1,4.46,2.513,7.833,7.833,0,0,1,.7,5.629,12.745,12.745,0,0,1-2.6,5.064,3.856,3.856,0,0,1-2.643,1.749,4.269,4.269,0,0,1-2.452-1.115c-1.833-1.382-4.628-2.375-5.8-4.43m-23.807,108.41.336.917a.642.642,0,0,0,.588.428,102.945,102.945,0,0,0,11.342-.29,41.966,41.966,0,0,0,4.4-.6,1.062,1.062,0,0,0,.855-1.008l.13-3.628.168-4.682s-6.378.527-11.22-1.382a18.773,18.773,0,0,1-.046,2.016,13.5,13.5,0,0,1-.344,2.207,9.075,9.075,0,0,1-.39,1.191l-.306.221-1.749,1.276-3.529,2.566a.68.68,0,0,0-.237.771" transform="translate(-991.072 -158.496)"/>
    <path id="Path_185" data-name="Path 185" d="M1359.207,1944.72c4.842,1.91,11.22,1.383,11.22,1.383l.053-1.383a35.433,35.433,0,0,1-11.38-1.42s.076.557.107,1.42" transform="translate(-1070.045 -1471.608)" fill="#fff"/>
    <path id="Path_186" data-name="Path 186" d="M1835.822,1893.833l.825.512a.642.642,0,0,0,.726-.031,102.261,102.261,0,0,0,8.7-7.294,40.749,40.749,0,0,0,3.063-3.208,1.069,1.069,0,0,0,.046-1.329l-2.154-2.91-2.788-3.773s-4.659,4.384-9.639,5.9a19.713,19.713,0,0,1,1.222,1.6,13.3,13.3,0,0,1,1.1,1.948,9.408,9.408,0,0,1,.443,1.169l-.1.367-.58,2.085-1.161,4.208a.664.664,0,0,0,.3.749" transform="translate(-1509.227 -1409.263)"/>
    <path id="Path_187" data-name="Path 187" d="M1822.87,1868.219c4.98-1.52,9.639-5.9,9.639-5.9l-.817-1.115a35.552,35.552,0,0,1-9.792,5.973s.412.4.97,1.046" transform="translate(-1497.497 -1395.778)" fill="#fff"/>
    <path id="Path_188" data-name="Path 188" d="M1347.9,1291.355c6.087,2.536,13.58,1.642,13.58,1.642.038-3.246,4.606-28.512,9.608-33.682s10.448-16.673,10.448-16.673l-10.12-3.46-.237-.092-8.218-3.59c-3.567,4.72-4.919,10.876-7.011,15.871a87.554,87.554,0,0,0-3.46,9.944c-3.055,10.83-4.59,30.039-4.59,30.039" transform="translate(-1059.7 -817.868)" fill="#1d4370"/>
    <path id="Path_189" data-name="Path 189" d="M1524.864,1327.084c1.734-2.765,3.445-5.148,4.9-7.034,2.375-3.07,4.071-4.842,4.1-4.873a.13.13,0,0,0-.007-.183.122.122,0,0,0-.176.008c-.031.031-1.688,1.757-4.01,4.758l-.168.206c-1.451,1.879-3.139,4.239-4.858,6.973a77.409,77.409,0,0,0-6.584,12.938c-2.054,5.262,2.635-6.164,6.8-12.793" transform="translate(-1216.409 -891.259)" fill="#01184a"/>
    <path id="Path_190" data-name="Path 190" d="M1650.456,1283.957l.038-.023a.13.13,0,0,0,.015-.183c-.031-.038-3.124-3.842-1.482-7.729a.128.128,0,1,0-.237-.1c-1.7,4.025,1.49,7.951,1.52,8a.153.153,0,0,0,.145.038" transform="translate(-1337.151 -855.128)" fill="#41294d"/>
    <path id="Path_191" data-name="Path 191" d="M1570.268,1287.486c6.064-.428,13.695-7.18,13.695-7.18-1.993-2.559-15.612-24.968-14.917-32.124s-3.345-16.482-3.345-16.482l-8.929.519-.244.076-6.927,2.276a68.531,68.531,0,0,0,2.658,16.818,86.433,86.433,0,0,0,3.483,9.929c4.346,10.38,14.527,26.167,14.527,26.167" transform="translate(-1245.995 -814.358)" fill="#1d4370"/>
    <path id="Path_192" data-name="Path 192" d="M1644.62,1236.751a.108.108,0,0,0,.015-.046.13.13,0,0,0-.1-.153c-.046-.008-4.835-1.062-5.973-5.125a.13.13,0,1,0-.245.069c1.176,4.208,6.118,5.3,6.164,5.308a.138.138,0,0,0,.138-.053" transform="translate(-1327.923 -813.994)" fill="#333"/>
    <path id="Path_193" data-name="Path 193" d="M1253.382,969.248l12.793-1.39.725-.046.611-9.158s6.4-1.123,10.074-3.154a34.11,34.11,0,0,1,.71,11.159,11.011,11.011,0,0,1-2.811,6.439,6.925,6.925,0,0,1-4.017,1.55,24.863,24.863,0,0,1-4.674.038l-15.894-3.628Z" transform="translate(-970.109 -559.253)" fill="#fda08e"/>
    <path id="Path_194" data-name="Path 194" d="M1460.4,1104.97l2.337-.069-2.268-.9Z" transform="translate(-1163.608 -696.411)" fill="#e97a6f"/>
    <path id="Path_195" data-name="Path 195" d="M1481.934,803.484s17.972-.565,12.389,21.569l-.58-.038-1.795,1.6-1.612,14.641s-11.228,2.933-21.531-1.123c0,0-.29-11.823-.581-21l-3.124.107s0-13.1,11.2-15.085Z" transform="translate(-1167.949 -418.847)"/>
    <path id="Path_196" data-name="Path 196" d="M1581.063,605.9c.107,5.148,3.322,4.873,3.322,4.873l-.626,3.414-.573.122s-.749,3.7,3.07,3.3a4.308,4.308,0,0,0,4.147-3.6l.023-8.4c1.543,0,3.093-1.764.878-2.772s-2.566,1.466-2.566,1.466a5.526,5.526,0,0,0-2.131-4.651c-3.017.825-3.636-1.741-3.636-1.741-1.779.993-1.978,4.873-1.909,8" transform="translate(-1275.045 -228.966)" fill="#fda08e"/>
    <path id="Path_197" data-name="Path 197" d="M1590.633,669.1c0,.275-.168.5-.367.5s-.367-.229-.367-.5.16-.5.367-.5.367.221.367.5m3.9.5c0,.283-.16.5-.359.5s-.367-.222-.367-.5.161-.5.367-.5.359.221.359.5" transform="translate(-1283.217 -294.266)"/>
    <path id="Path_198" data-name="Path 198" d="M1622.483,682.387a7.468,7.468,0,0,0,3.911-1.306s-.833,2.184-4.094,2.314Zm5.247-6.164a1.536,1.536,0,0,1,.924-.779.161.161,0,0,1,.191.107.145.145,0,0,1-.122.168s-.038.015-.008,0l-.023.015-.069.023-.107.053h-.008a1.116,1.116,0,0,1,.252.283.137.137,0,0,1-.069.191.168.168,0,0,1-.214-.054l-.046-.076a.91.91,0,0,0-.153-.145l-.015-.015-.038.038h0l-.023.023-.038.053a.543.543,0,0,0-.076.107l-.031.046-.015.023a.076.076,0,0,0-.008.023.16.16,0,0,1-.2.092c-.069-.023-.145-.1-.107-.183" transform="translate(-1313.142 -300.583)" fill="#e97a6f"/>
    <path id="Path_199" data-name="Path 199" d="M1584.72,646.858c-.1.244-.626.26-1.184.038s-.924-.6-.833-.848.634-.26,1.192-.038.924.6.825.848m-4.2-.878c.038.26-.412.542-1,.634s-1.107-.053-1.146-.313.413-.542,1-.634,1.108.053,1.146.313" transform="translate(-1272.568 -273.059)"/>
    <path id="Path_200" data-name="Path 200" d="M1605.048,669.8l-.848,3.452,1.367-.191Z" transform="translate(-1296.425 -295.374)" fill="#e97a6f"/>
    <path id="Path_201" data-name="Path 201" d="M1618.563,705.5a3,3,0,0,1-2.284,1.65.286.286,0,0,0-.283.275.29.29,0,0,0,.306.252,3.6,3.6,0,0,0,2.773-1.932c.153-.321-.367-.542-.512-.244" transform="translate(-1307.32 -328.221)" fill="#e97a6f"/>
    <path id="Path_202" data-name="Path 202" d="M1546.1,1072.581c2.627,2.314,13.8,6.194,16.91,5.667,5.377-.917,6.187-16.223,6.187-16.223a30.537,30.537,0,0,1-8.111-1.726l-.573,11.067-11.2.4Z" transform="translate(-1242.762 -656.049)" fill="#fda08e"/>
    <path id="Path_203" data-name="Path 203" d="M1734.7,1193.47l2.337-.046-2.284-.924Z" transform="translate(-1416.957 -778.152)" fill="#e97a6f"/>
    <path id="Path_204" data-name="Path 204" d="M1730.108,984.471V978.2l-1.008,17.353.435-.015Z" transform="translate(-1411.785 -580.22)"/>
    <path id="Path_205" data-name="Path 205" d="M1062.7,866.453l-52.227-12.87a8.432,8.432,0,0,1-6.164-10.2l.664-2.689a8.424,8.424,0,0,1,10.2-6.171L1067.4,847.4a8.425,8.425,0,0,1,6.171,10.2l-.665,2.7a8.424,8.424,0,0,1-10.2,6.164" transform="translate(-742.127 -447.285)" fill="#94c12e"/>
    <path id="Path_206" data-name="Path 206" d="M1241.942,944.7a3.2,3.2,0,0,1-.069-2.276l.237-.955,1.925.474-.306,1.214c-.115.489-.023.771.29.848a.4.4,0,0,0,.4-.069,1.032,1.032,0,0,0,.237-.489,2.5,2.5,0,0,0,.077-.817,1.706,1.706,0,0,0-.16-.6,9.183,9.183,0,0,0-.466-.81l-.642-1.054a3.157,3.157,0,0,1,.588-4.124,2.194,2.194,0,0,1,1.841-.244,2.423,2.423,0,0,1,1.734,1.176,3.477,3.477,0,0,1,.038,2.33l-1.993-.489.153-.672a.451.451,0,0,0-.031-.336.413.413,0,0,0-.275-.191.443.443,0,0,0-.374.046.481.481,0,0,0-.191.313,1.413,1.413,0,0,0,.3,1.123l.871,1.375a7.516,7.516,0,0,1,.481.894,2.924,2.924,0,0,1,.214.924,3.54,3.54,0,0,1-.115,1.161,3.913,3.913,0,0,1-1.069,2.062,2.034,2.034,0,0,1-1.932.313,2.675,2.675,0,0,1-1.757-1.13" transform="translate(-961.617 -540.971)" fill="#fff"/>
    <rect id="Rectangle_23" data-name="Rectangle 23" width="10.074" height="1.947" transform="translate(284.883 405.39) rotate(-76.2)" fill="#fff"/>
    <path id="Path_207" data-name="Path 207" d="M1346.211,970.609a4.165,4.165,0,0,1,.038-2.391l1.039-4.216a3.125,3.125,0,0,1,1.108-1.894,2.331,2.331,0,0,1,1.97-.252,2.649,2.649,0,0,1,1.413.756,2.009,2.009,0,0,1,.458,1.306,7.486,7.486,0,0,1-.26,1.955l-1.917-.474.214-.878a1.146,1.146,0,0,0,.038-.565.368.368,0,0,0-.3-.283q-.565-.137-.733.6l-1.169,4.735a1.537,1.537,0,0,0-.053.7.413.413,0,0,0,.344.328.408.408,0,0,0,.451-.13,1.632,1.632,0,0,0,.283-.642l.344-1.405-.519-.122.412-1.688,2.391.588-1.405,5.69-.787-.191-.122-.9a1.79,1.79,0,0,1-1.841.512,1.833,1.833,0,0,1-1.4-1.13" transform="translate(-1057.996 -565.029)" fill="#fff"/>
    <path id="Path_208" data-name="Path 208" d="M1412.6,984.376l2.406-9.776,2.016.5-.252,4.9,1.153-4.682,1.887.466-2.406,9.776-1.917-.466.229-5.14-1.207,4.9Z" transform="translate(-1119.459 -576.895)" fill="#fff"/>
    <path id="Path_209" data-name="Path 209" d="M1526.926,1010.433a3.1,3.1,0,0,1-.092-2.169l1.764-7.164,1.9.474-1.741,7.08a2.454,2.454,0,0,0-.092.749.389.389,0,0,0,.328.359.382.382,0,0,0,.443-.161,2.289,2.289,0,0,0,.275-.71l1.749-7.088,1.9.474-1.772,7.156a3.087,3.087,0,0,1-1.084,1.887,2.3,2.3,0,0,1-1.963.237,2.277,2.277,0,0,1-1.619-1.123m7.187-7.974,2.582.634a1.917,1.917,0,0,1,1.489,1.176,4.13,4.13,0,0,1-.046,2.337,4.457,4.457,0,0,1-.985,2.085,1.763,1.763,0,0,1-1.772.351l-.8-.2-.955,3.872-1.925-.474Zm1.016,4.644a.832.832,0,0,0,.55,0,.672.672,0,0,0,.313-.321,4.584,4.584,0,0,0,.221-.687,2.232,2.232,0,0,0,.084-.924.554.554,0,0,0-.481-.4l-.214-.053-.588,2.368Z" transform="translate(-1224.834 -601.371)" fill="#fff"/>
    <path id="Path_210" data-name="Path 210" d="M1171.135,1089.806l-3.567-.573a.626.626,0,0,1-.374-.214l-2.612-3.131a.2.2,0,0,1,.176-.321,4.236,4.236,0,0,1,2.948,2.245l-1.329-2.612a.2.2,0,0,1,.282-.252,5.774,5.774,0,0,1,2.108,2.36l-1.069-2.75a.191.191,0,0,1,.29-.229,4.61,4.61,0,0,1,1.932,2.566l-.71-2.574a.191.191,0,0,1,.3-.214,3.914,3.914,0,0,1,1.543,2.681s2.444-.237,2.566,1.207Zm22.547,4.728-2.643-2.444a.6.6,0,0,1-.2-.39l-.443-4.048a.191.191,0,0,1,.321-.168,4.237,4.237,0,0,1,1.222,3.5l.336-2.91a.2.2,0,0,1,.374-.053,5.772,5.772,0,0,1,.443,3.124l.634-2.872a.2.2,0,0,1,.374-.031,4.613,4.613,0,0,1,.183,3.208l.833-2.543a.191.191,0,0,1,.367-.008,3.9,3.9,0,0,1-.2,3.086s2.169,1.153,1.466,2.421Z" transform="translate(-890.344 -678.001)" fill="#fda08e"/>
    <rect id="Rectangle_24" data-name="Rectangle 24" width="40.656" height="3.388" transform="translate(218.704 401.845)" fill="#bde0fe"/>
    <rect id="Rectangle_25" data-name="Rectangle 25" width="9.089" height="1.24" transform="translate(219.177 398.775)" fill="#13417c"/>
    <rect id="Rectangle_26" data-name="Rectangle 26" width="3.903" height="1.24" transform="translate(230.458 398.775)" fill="#13417c"/>
    <rect id="Rectangle_27" data-name="Rectangle 27" width="40.656" height="3.388" transform="translate(218.704 411.293)" fill="#bde0fe"/>
    <rect id="Rectangle_28" data-name="Rectangle 28" width="9.089" height="1.24" transform="translate(219.177 408.223)" fill="#13417c"/>
    <rect id="Rectangle_29" data-name="Rectangle 29" width="3.903" height="1.24" transform="translate(230.458 408.223)" fill="#13417c"/>
    <rect id="Rectangle_30" data-name="Rectangle 30" width="40.656" height="3.388" transform="translate(218.704 420.749)" fill="#bde0fe"/>
    <rect id="Rectangle_31" data-name="Rectangle 31" width="9.089" height="1.24" transform="translate(219.177 417.678)" fill="#13417c"/>
    <rect id="Rectangle_32" data-name="Rectangle 32" width="3.903" height="1.24" transform="translate(230.458 417.678)" fill="#13417c"/>
    <rect id="Rectangle_33" data-name="Rectangle 33" width="40.656" height="3.388" transform="translate(218.704 430.196)" fill="#bde0fe"/>
    <rect id="Rectangle_34" data-name="Rectangle 34" width="9.089" height="1.24" transform="translate(219.177 427.126)" fill="#13417c"/>
    <rect id="Rectangle_35" data-name="Rectangle 35" width="3.903" height="1.24" transform="translate(230.458 427.126)" fill="#13417c"/>
    <rect id="Rectangle_36" data-name="Rectangle 36" width="4.163" height="0.584" transform="translate(255.197 381.651)" fill="#13417c"/>
    <rect id="Rectangle_37" data-name="Rectangle 37" width="4.163" height="0.584" transform="translate(255.197 382.758)" fill="#13417c"/>
    <rect id="Rectangle_38" data-name="Rectangle 38" width="4.163" height="0.584" transform="translate(255.197 383.866)" fill="#13417c"/>
    <rect id="Rectangle_39" data-name="Rectangle 39" width="10.181" height="1.147" transform="translate(220.094 402.96)" fill="#fff"/>
    <rect id="Rectangle_40" data-name="Rectangle 40" width="15.711" height="1.147" transform="translate(235.568 402.96)" fill="#fff"/>
    <rect id="Rectangle_41" data-name="Rectangle 41" width="3.429" height="1.147" transform="translate(231.161 402.96)" fill="#fff"/>
    <rect id="Rectangle_42" data-name="Rectangle 42" width="3.72" height="1.147" transform="translate(220.094 412.416)" fill="#fff"/>
    <rect id="Rectangle_43" data-name="Rectangle 43" width="11.418" height="1.147" transform="translate(233.666 412.416)" fill="#fff"/>
    <rect id="Rectangle_44" data-name="Rectangle 44" width="7.317" height="1.147" transform="translate(225.181 412.416)" fill="#fff"/>
    <rect id="Rectangle_45" data-name="Rectangle 45" width="8.974" height="1.147" transform="translate(220.094 421.871)" fill="#fff"/>
    <rect id="Rectangle_46" data-name="Rectangle 46" width="2.643" height="1.147" transform="translate(242.45 421.871)" fill="#fff"/>
    <rect id="Rectangle_47" data-name="Rectangle 47" width="10.945" height="1.147" transform="translate(230.237 421.871)" fill="#fff"/>
    <rect id="Rectangle_48" data-name="Rectangle 48" width="3.72" height="1.147" transform="translate(220.094 431.319)" fill="#fff"/>
    <rect id="Rectangle_49" data-name="Rectangle 49" width="10.616" height="1.147" transform="translate(239.944 431.319)" fill="#fff"/>
    <rect id="Rectangle_50" data-name="Rectangle 50" width="13.633" height="1.147" transform="translate(225.181 431.319)" fill="#fff"/>
    <path id="Path_211" data-name="Path 211" d="M415.847,1731.519v6.2H365.3v-6.2a4.819,4.819,0,0,1,4.819-4.819h40.908a4.812,4.812,0,0,1,4.819,4.819" transform="translate(-152.149 -1271.551)" fill="#13417c"/>
    <rect id="Rectangle_51" data-name="Rectangle 51" width="16.276" height="1.764" transform="translate(221.385 461.076)" fill="#fff"/>
    <rect id="Rectangle_52" data-name="Rectangle 52" width="5.278" height="1.764" transform="translate(239.486 461.076)" fill="#fff"/>
    <rect id="Rectangle_53" data-name="Rectangle 53" width="9.364" height="1.764" transform="translate(246.1 461.076)" fill="#fff"/>
    <rect id="Rectangle_54" data-name="Rectangle 54" width="7.882" height="1.604" transform="translate(219.544 470.837)" fill="#bde0fe"/>
    <rect id="Rectangle_55" data-name="Rectangle 55" width="7.454" height="1.604" transform="translate(249.851 470.837)" fill="#bde0fe"/>
    <rect id="Rectangle_56" data-name="Rectangle 56" width="19.331" height="1.604" transform="translate(229.068 470.837)" fill="#bde0fe"/>
    <rect id="Rectangle_57" data-name="Rectangle 57" width="14.611" height="1.604" transform="translate(242.702 475.733)" fill="#bde0fe"/>
    <rect id="Rectangle_58" data-name="Rectangle 58" width="21.424" height="1.604" transform="translate(219.544 475.733)" fill="#bde0fe"/>
  </g>
</svg>
